<svg xmlns="http://www.w3.org/2000/svg" width="512" height="512" viewBox="0 0 512 512" version="1.1">
	<path d="M 0 256.002 L 0 512.004 256.250 511.752 L 512.500 511.500 512.752 255.750 L 513.004 0 256.502 0 L 0 0 0 256.002 M 0.492 256.500 C 0.492 397.300, 0.608 454.751, 0.750 384.170 C 0.892 313.588, 0.892 198.388, 0.750 128.170 C 0.608 57.951, 0.492 115.700, 0.492 256.500 M 239 92.620 C 218.318 95.201, 200.540 100.513, 182.500 109.500 C 171.117 115.171, 150.078 129.266, 149.239 131.783 C 149.085 132.244, 151.294 135.519, 154.148 139.061 C 183.756 175.805, 199.431 223.302, 197.690 271 C 196.304 308.992, 184.635 344.644, 163.372 375.853 C 159.867 380.997, 157 385.618, 157 386.121 C 157 386.625, 161.163 389.775, 166.250 393.121 C 221.095 429.195, 292.978 428.679, 347.750 391.818 C 351.737 389.135, 355 386.530, 355 386.030 C 355 385.530, 352.534 381.685, 349.521 377.485 C 312.548 325.952, 303.633 254.736, 326.490 193.500 C 333.345 175.135, 344.986 154.741, 357.313 139.500 C 360.427 135.650, 362.980 132.202, 362.987 131.839 C 363.006 130.858, 349.535 120.911, 341.500 115.973 C 326.176 106.554, 306.068 98.731, 287.446 94.942 C 277.744 92.968, 247.736 91.530, 239 92.620 M 131.848 148.750 C 119.812 161.852, 106.829 184.644, 100.660 203.500 C 84.256 253.640, 91.569 305.741, 121.081 349 C 127.431 358.308, 140.719 373.292, 141.949 372.532 C 142.374 372.269, 145.178 368.329, 148.180 363.777 C 166.992 335.250, 176.521 306.306, 178.561 271.500 C 180.535 237.816, 169.909 196.832, 151.985 169 C 146.946 161.175, 135.724 146.049, 134.937 146.020 C 134.627 146.009, 133.237 147.238, 131.848 148.750 M 371.783 151.750 C 342.045 189.648, 328.231 239.383, 334.455 286.136 C 337.154 306.407, 341.767 322.067, 350.514 340.645 C 355.513 351.262, 366.590 369.585, 369.440 371.950 C 371.309 373.502, 383.073 360.632, 392.147 347.107 C 409.368 321.439, 418.451 293.494, 419.646 262.500 C 420.998 227.475, 412.228 195.207, 393.556 166.500 C 387.917 157.832, 378.426 146, 377.111 146 C 376.662 146, 374.265 148.588, 371.783 151.750" stroke="none" fill="black" fill-rule="evenodd"/>
</svg>